<svg width="178" height="66" viewBox="0 0 178 66" fill="none" xmlns="http://www.w3.org/2000/svg">
<path fill-rule="evenodd" clip-rule="evenodd" d="M30.76 44.4271V13.1098C30.76 12.8116 30.909 12.6626 31.2071 12.6626H32.9792C34.4366 12.6626 35.6842 13.1815 36.722 14.2194C37.7599 15.2572 38.2788 16.5103 38.2788 17.9788V21.9535H46.5594C46.8575 21.9535 47.0066 22.1025 47.0066 22.4006V26.8225C47.0066 27.5512 46.7471 28.175 46.2282 28.6939C45.7093 29.2128 45.0854 29.4723 44.3568 29.4723H38.2788V44.4271C38.2788 45.8844 38.6431 46.9609 39.3718 47.6565C40.1557 48.4183 41.3537 48.7992 42.9656 48.7992C44.3899 48.7992 45.4995 48.4956 46.2944 47.8884C46.438 47.7779 46.5925 47.7614 46.7581 47.8387C46.9237 47.916 47.0066 48.0484 47.0066 48.2361V55.4237C47.0066 55.6556 46.8961 55.7991 46.6753 55.8543C45.505 56.1634 44.2684 56.318 42.9656 56.318C39.3553 56.318 36.4239 55.2305 34.1716 53.0555C31.8972 50.8694 30.76 47.9932 30.76 44.4271ZM1.43003 45.7188C2.19184 46.2819 2.99782 46.7677 3.84797 47.1762C6.05613 48.2582 8.40231 48.7992 10.8865 48.7992C13.1609 48.7992 14.7453 48.5177 15.6396 47.9546C16.1806 47.6234 16.5615 47.1762 16.7823 46.6131C17.0142 46.0169 17.0086 45.4428 16.7657 44.8908C16.4566 44.1842 15.8052 43.61 14.8115 43.1684L6.13342 39.3593C2.6666 37.8357 0.662689 35.484 0.121689 32.3042C-0.165373 30.6481 0.0554449 28.992 0.784138 27.3359C0.872465 27.1371 1.01048 26.8721 1.19817 26.5409C1.83854 25.4037 2.70524 24.4321 3.79828 23.6261C5.50961 22.3675 7.71226 21.5946 10.4062 21.3076C11.3336 21.1972 12.2832 21.142 13.2547 21.142C16.3351 21.142 19.3106 21.6719 22.1813 22.7318C22.38 22.8091 22.4794 22.9471 22.4794 23.1459V30.3831C22.4794 30.5487 22.4076 30.6757 22.2641 30.764C22.1205 30.8524 21.977 30.8579 21.8335 30.7806C21.2925 30.4935 20.7404 30.2396 20.1773 30.0188C17.9802 29.1134 15.6727 28.6608 13.2547 28.6608C12.4488 28.6608 11.7642 28.6939 11.2012 28.7601C9.85418 28.9037 8.86602 29.2073 8.23669 29.671C7.58529 30.1568 7.38103 30.7254 7.62393 31.3768C7.75642 31.7411 8.09868 32.0448 8.65073 32.2877L17.9747 36.3783C20.6355 37.5155 22.518 39.3538 23.6221 41.8932C24.5164 43.9357 24.6875 46.0445 24.1355 48.2196C23.5834 50.3505 22.4462 52.1225 20.7239 53.5357C19.5646 54.4852 18.2397 55.1808 16.7492 55.6224C15.8217 55.8874 14.8005 56.0751 13.6853 56.1855C12.791 56.2739 11.8581 56.318 10.8865 56.318C8.20357 56.318 5.60346 55.8764 3.08615 54.9931C1.50731 54.4411 0.717894 53.326 0.717894 51.6478V46.0832C0.717894 45.9065 0.800699 45.774 0.966313 45.6857C1.12088 45.6084 1.27546 45.6195 1.43003 45.7188ZM61.332 55.0594V33.0329C61.332 31.5755 61.6964 30.4991 62.4251 29.8035C63.209 29.0417 64.4069 28.6608 66.0189 28.6608C67.4431 28.6608 68.5527 28.9644 69.3477 29.5716C69.4912 29.682 69.6458 29.6986 69.8114 29.6213C69.977 29.544 70.0598 29.4115 70.0598 29.2238V22.0363C70.0598 21.8044 69.9494 21.6609 69.7286 21.6057C68.5582 21.2965 67.3217 21.142 66.0189 21.142C62.4085 21.142 59.4772 22.2295 57.2248 24.4045C54.9504 26.5906 53.8132 29.4667 53.8132 33.0329V55.0594C53.8132 55.3575 53.9623 55.5065 54.2604 55.5065H60.8849C61.183 55.5065 61.332 55.3575 61.332 55.0594ZM83.226 55.0594C83.226 55.3575 83.0769 55.5065 82.7788 55.5065H76.1543C76.0329 55.5065 75.928 55.4624 75.8397 55.374C75.7513 55.2857 75.7072 55.1808 75.7072 55.0594V22.4006C75.7072 22.2792 75.7513 22.1743 75.8397 22.0859C75.928 21.9976 76.0329 21.9535 76.1543 21.9535H82.7788C83.0769 21.9535 83.226 22.1025 83.226 22.4006V55.0594ZM87.3663 22.1522C87.278 22.2847 87.2669 22.4282 87.3332 22.5828L101.394 54.5957C101.857 55.6556 102.812 56.1855 104.259 56.1855C105.705 56.1855 106.66 55.6556 107.124 54.5957L121.184 22.5828C121.251 22.4282 121.24 22.2847 121.151 22.1522C121.063 22.0197 120.941 21.9535 120.787 21.9535H113.533C113.345 21.9535 113.213 22.0418 113.136 22.2184L104.259 42.4397L96.1934 24.0733C95.5751 22.6601 94.4987 21.9535 92.964 21.9535H87.7306C87.5761 21.9535 87.4546 22.0197 87.3663 22.1522ZM152.849 26.2925C149.416 22.8588 145.27 21.142 140.412 21.142C135.554 21.142 131.408 22.8588 127.974 26.2925C124.541 29.7262 122.824 33.872 122.824 38.73C122.824 43.5879 124.541 47.7338 127.974 51.1675C131.408 54.6012 135.554 56.318 140.412 56.318C145.27 56.318 149.416 54.6012 152.849 51.1675C156.283 47.7338 158 43.5879 158 38.73C158 33.872 156.283 29.7262 152.849 26.2925ZM140.412 28.6608C143.194 28.6608 145.568 29.6434 147.533 31.6087C149.499 33.5739 150.481 35.9477 150.481 38.73C150.481 41.5123 149.499 43.886 147.533 45.8513C145.568 47.8166 143.194 48.7992 140.412 48.7992C137.63 48.7992 135.256 47.8166 133.291 45.8513C131.325 43.886 130.343 41.5123 130.343 38.73C130.343 35.9477 131.325 33.5739 133.291 31.6087C135.256 29.6434 137.63 28.6608 140.412 28.6608Z" fill="url(#paint0_linear_1731_38631)"/>
<path fill-rule="evenodd" clip-rule="evenodd" d="M57.1653 15.6278C56.1063 14.5378 55.5232 13.0884 55.5232 11.5467C55.5232 10.0049 56.1063 8.55563 57.1653 7.46548C58.2243 6.37532 59.6145 5.78251 61.1014 5.77507L61.5782 5.01612C61.4296 5.00527 61.2801 5 61.1298 5C60.2715 5 59.4386 5.17327 58.6544 5.5147C57.897 5.84435 57.2169 6.31643 56.6331 6.91745C56.0492 7.51848 55.5906 8.2187 55.2702 8.99826C54.9386 9.80573 54.7704 10.6631 54.7704 11.5467C54.7704 12.4302 54.9386 13.2877 55.2702 14.095C55.5906 14.8746 56.049 15.5747 56.6331 16.1759C57.133 16.6907 57.7036 17.1109 58.3331 17.4278L58.5501 16.6743C58.0456 16.4045 57.5788 16.0536 57.1653 15.6278ZM66.9896 8.99826C66.6692 8.2187 66.2108 7.51864 65.6268 6.91745C65.0429 6.31643 64.3627 5.84435 63.6054 5.5147C63.3678 5.41133 63.1259 5.3233 62.88 5.25092L62.6908 6.00042C63.5902 6.26714 64.4143 6.76526 65.0945 7.46548C66.1534 8.55563 66.7366 10.005 66.7366 11.5467C66.7366 13.0883 66.1534 14.5378 65.0945 15.6278C64.0355 16.718 62.6275 17.3184 61.1298 17.3184C60.7628 17.3184 60.401 17.2823 60.0484 17.2116L59.6055 17.9042C60.1008 18.0299 60.6107 18.0933 61.1298 18.0933C61.9883 18.0933 62.8212 17.9202 63.6054 17.5788C64.3627 17.249 65.0429 16.777 65.6268 16.1759C66.2108 15.5747 66.6692 14.8746 66.9896 14.095C67.3212 13.2877 67.4894 12.4304 67.4894 11.5467C67.4894 10.6629 67.3212 9.80573 66.9896 8.99826ZM61.3121 9.53194C61.2783 9.66578 61.3871 9.7928 61.5245 9.78004L64.0006 9.55017C64.1663 9.53478 64.2772 9.71682 64.1875 9.85707L59.1395 17.7505C59.0152 17.9449 58.7149 17.8091 58.7788 17.5874L60.3966 11.9711C60.4347 11.8388 60.3309 11.7085 60.1935 11.716L58.2373 11.8227C58.0753 11.8316 57.9708 11.654 58.0571 11.5167L61.9894 5.25488C62.1106 5.06194 62.4085 5.1893 62.3527 5.4102L61.3121 9.53194Z" fill="url(#paint1_linear_1731_38631)"/>
<defs>
<linearGradient id="paint0_linear_1731_38631" x1="12.2951" y1="39.3726" x2="114.281" y2="84.6675" gradientUnits="userSpaceOnUse">
<stop stop-color="#FF6F61"/>
<stop offset="1" stop-color="#06437D"/>
</linearGradient>
<linearGradient id="paint1_linear_1731_38631" x1="55.7601" y1="13.011" x2="65.4517" y2="14.1662" gradientUnits="userSpaceOnUse">
<stop stop-color="#FF6F61"/>
<stop offset="1" stop-color="#06437D"/>
</linearGradient>
</defs>
</svg>
